<svg xmlns="http://www.w3.org/2000/svg" width="512" height="512" viewBox="0 0 512 512">
  <rect width="512" height="512" rx="112" fill="#B5553C"/>
  <g transform="translate(256 256) scale(1) translate(-256 -256)">
    <path transform="translate(153.87 106) scale(4.14)" fill="#F4F1EC" d="M26.55 72.25Q21.90 72.25 18.93 70.90Q15.95 69.55 14.30 68.23Q12.65 66.90 12.05 66.90Q11.70 66.90 10.93 67.73Q10.15 68.55 9.25 69.65Q8.35 70.75 7.58 71.60Q6.80 72.45 6.35 72.45Q6.05 72.45 5.75 72.20Q5.45 71.95 5.35 71.60L1.55 50.05Q1.50 49.75 1.52 49.58Q1.55 49.40 1.65 49.35Q1.80 49.25 1.98 49.35Q2.15 49.45 2.25 49.65Q6.45 58.20 10.38 62.90Q14.30 67.60 18.05 69.45Q21.80 71.30 25.45 71.30Q30.90 71.30 34.13 68.33Q37.35 65.35 37.35 59.60Q37.35 56.10 35.90 53.15Q34.45 50.20 30.98 47.67Q27.50 45.15 21.50 43Q13.60 40.20 8.90 36.83Q4.20 33.45 2.10 29.38Q0 25.30 0 20.20Q0 14.25 3.02 9.75Q6.05 5.25 11.30 2.72Q16.55 0.20 23.30 0.20Q27.50 0.20 30.25 1.22Q33 2.25 34.60 3.28Q36.20 4.30 36.95 4.30Q37.60 4.30 38.93 3.22Q40.25 2.15 41.50 1.08Q42.75 0 43.25 0Q43.50 0 43.70 0.15Q43.90 0.30 44 0.65L49.30 22.10Q49.35 22.40 49.33 22.55Q49.30 22.70 49.20 22.80Q49.10 22.85 48.93 22.77Q48.75 22.70 48.60 22.50Q44.10 14.10 40.05 9.48Q36 4.85 32.10 3Q28.20 1.15 24.15 1.15Q18.95 1.15 15.58 4.53Q12.20 7.90 12.20 13.80Q12.20 17.45 13.58 20.50Q14.95 23.55 18.27 26.08Q21.60 28.60 27.35 30.75Q35.60 33.70 40.33 37.05Q45.05 40.40 47.05 44.30Q49.05 48.20 49.05 52.90Q49.05 58.30 46.38 62.68Q43.70 67.05 38.68 69.65Q33.65 72.25 26.55 72.25"/>
  </g>
</svg>
